<?xml version="1.0" encoding="iso-8859-1"?>
<!-- Uploaded to: SVG Repo, www.svgrepo.com, Generator: SVG Repo Mixer Tools -->
<svg version="1.1" id="Layer_1" xmlns="http://www.w3.org/2000/svg" xmlns:xlink="http://www.w3.org/1999/xlink" 
	 viewBox="0 0 512.001 512.001" xml:space="preserve">
<g>
	<path style="fill:#FFAC52;" d="M324.278,482.581c-2.097-6.324-8.923-9.752-15.249-7.654l-25.39,8.42
		c-3.254-67.595-27.389-111.905-47.919-137.748c-24.415-30.734-49.176-42.916-50.218-43.419l-10.497,21.623
		c0.853,0.413,85.311,42.87,84.872,176.094c-0.013,3.882,1.843,7.533,4.986,9.811c2.086,1.51,4.568,2.293,7.079,2.293
		c1.274,0,2.556-0.201,3.795-0.614l40.884-13.558C322.949,495.731,326.375,488.905,324.278,482.581z"/>
	<path style="fill:#FFAC52;" d="M79.563,117.966c-26.712-1.93-52.164,6.253-73.587,23.698c-5.167,4.207-5.944,11.806-1.736,16.972
		c4.207,5.167,11.806,5.944,16.972,1.736c35.232-28.69,80.358-24.183,123.808,12.37l15.533-18.465
		C134.655,132.492,106.649,119.936,79.563,117.966z"/>
</g>
<path style="fill:#E85512;" d="M199.18,142.094c-54.284-16.961-65.565,11.031-85.232,74.185c-2.616,8.372-4.773,16.095-6.469,23.259
	l43.798,41.557l67.926-6.701c2.677-6.855,5.295-14.435,7.903-22.81C246.839,188.415,253.462,159.029,199.18,142.094z"/>
<path style="fill:#F7CF40;" d="M143.581,320.342c37.982,11.794,58.113-1.111,75.622-45.947l-111.724-34.858
	C96.375,286.425,105.595,308.547,143.581,320.342z"/>
<path style="fill:#FFAC52;" d="M280.828,67.299c-5.154,31.663-34.907,53.082-66.553,47.932
	c-31.59-5.142-53.077-34.901-47.924-66.564c5.13-31.516,34.966-53.05,66.555-47.908C264.553,5.909,285.958,35.784,280.828,67.299z"
	/>
<circle style="fill:#F7CF40;" cx="445.529" cy="258.758" r="25.335"/>
<g>
	<path style="fill:#FFEBD4;" d="M361.14,202.148l-19.885,62.666L361.14,202.148z"/>
	<path style="fill:#FFEBD4;" d="M349.64,198.5l-19.885,62.666c-2.015,6.351,1.5,13.133,7.85,15.148
		c1.214,0.385,2.443,0.569,3.652,0.569c5.118,0,9.866-3.283,11.496-8.42l19.885-62.666L349.64,198.5z"/>
</g>
<g>
	<rect x="311.807" y="323.556" style="fill:#6ECCAE;" width="198.665" height="37.798"/>
	<path style="fill:#6ECCAE;" d="M380.543,141c-22.308-7.078-46.132,5.267-53.21,27.576c-2.366,7.456-2.345,14.401-0.438,20.611
		c3.975,12.943,18.792,21.337,30.417,25.026c11.626,3.689,28.571,5.372,39.282-2.91c5.138-3.974,9.159-9.637,11.525-17.093
		C415.197,171.901,402.851,148.078,380.543,141z"/>
</g>
<g>
	<path style="fill:#FFAC52;" d="M304.334,262.807c-13.471,0-27.117-2.582-40.451-7.774c-33.184-12.926-59.668-40.369-70.842-73.412
		c-2.135-6.312,1.251-13.159,7.563-15.294c6.313-2.137,13.159,1.252,15.293,7.563c8.917,26.366,30.13,48.293,56.743,58.658
		c23.954,9.329,49.105,7.908,70.815-4.004c5.843-3.206,13.176-1.068,16.381,4.773c3.206,5.842,1.068,13.176-4.774,16.38
		C339.172,258.415,321.901,262.807,304.334,262.807z"/>
	<path style="fill:#FFAC52;" d="M16.83,499.939c-1.711,0-3.448-0.366-5.1-1.138c-6.037-2.821-8.644-10.001-5.822-16.037
		l17.677-37.828c1.1-2.356,2.933-4.293,5.224-5.522c105.711-56.753,87.593-142.348,87.396-143.207
		c-1.479-6.497,2.588-12.962,9.085-14.442c6.498-1.479,12.963,2.588,14.442,9.085c0.249,1.091,5.971,27.099-3.754,61.095
		c-8.67,30.307-31.729,73.172-92.207,106.79l-16.003,34.245C25.718,497.364,21.369,499.939,16.83,499.939z"/>
</g>
</svg>